<svg id="visual" viewBox="0 0 960 540" width="960" height="540" xmlns="http://www.w3.org/2000/svg" xmlns:xlink="http://www.w3.org/1999/xlink" version="1.1"><rect x="0" y="0" width="960" height="540" fill="#FFE7D4"></rect><path d="M0 324L17.8 326.7C35.7 329.3 71.3 334.7 106.8 335C142.3 335.3 177.7 330.7 213.2 334.2C248.7 337.7 284.3 349.3 320 356.8C355.7 364.3 391.3 367.7 426.8 367.8C462.3 368 497.7 365 533.2 368C568.7 371 604.3 380 640 372.5C675.7 365 711.3 341 746.8 330.5C782.3 320 817.7 323 853.2 334.7C888.7 346.3 924.3 366.7 942.2 376.8L960 387L960 541L942.2 541C924.3 541 888.7 541 853.2 541C817.7 541 782.3 541 746.8 541C711.3 541 675.7 541 640 541C604.3 541 568.7 541 533.2 541C497.7 541 462.3 541 426.8 541C391.3 541 355.7 541 320 541C284.3 541 248.7 541 213.2 541C177.7 541 142.3 541 106.8 541C71.3 541 35.7 541 17.8 541L0 541Z" fill="#ff6517"></path><path d="M0 366L17.8 363.7C35.7 361.3 71.3 356.7 106.8 355.8C142.3 355 177.7 358 213.2 369.5C248.7 381 284.3 401 320 398.7C355.7 396.3 391.3 371.7 426.8 360.8C462.3 350 497.7 353 533.2 360C568.7 367 604.3 378 640 384.7C675.7 391.3 711.3 393.7 746.8 387.5C782.3 381.3 817.7 366.7 853.2 364.7C888.7 362.7 924.3 373.3 942.2 378.7L960 384L960 541L942.2 541C924.3 541 888.7 541 853.2 541C817.7 541 782.3 541 746.8 541C711.3 541 675.7 541 640 541C604.3 541 568.7 541 533.2 541C497.7 541 462.3 541 426.8 541C391.3 541 355.7 541 320 541C284.3 541 248.7 541 213.2 541C177.7 541 142.3 541 106.8 541C71.3 541 35.7 541 17.8 541L0 541Z" fill="#f24063"></path><path d="M0 424L17.8 418C35.7 412 71.3 400 106.8 396.2C142.3 392.3 177.7 396.7 213.2 400.5C248.7 404.3 284.3 407.7 320 411.7C355.7 415.7 391.3 420.3 426.8 417.7C462.3 415 497.7 405 533.2 400.7C568.7 396.3 604.3 397.7 640 400.5C675.7 403.3 711.3 407.7 746.8 409.7C782.3 411.7 817.7 411.3 853.2 416.3C888.7 421.3 924.3 431.7 942.2 436.8L960 442L960 541L942.2 541C924.3 541 888.7 541 853.2 541C817.7 541 782.3 541 746.8 541C711.3 541 675.7 541 640 541C604.3 541 568.7 541 533.2 541C497.7 541 462.3 541 426.8 541C391.3 541 355.7 541 320 541C284.3 541 248.7 541 213.2 541C177.7 541 142.3 541 106.8 541C71.3 541 35.7 541 17.8 541L0 541Z" fill="#c0478e"></path><path d="M0 439L17.8 435.5C35.7 432 71.3 425 106.8 425.3C142.3 425.7 177.7 433.3 213.2 439.5C248.7 445.7 284.3 450.3 320 453.2C355.7 456 391.3 457 426.8 451.8C462.3 446.7 497.7 435.3 533.2 433.2C568.7 431 604.3 438 640 439.5C675.7 441 711.3 437 746.8 431.8C782.3 426.7 817.7 420.3 853.2 417.7C888.7 415 924.3 416 942.2 416.5L960 417L960 541L942.2 541C924.3 541 888.7 541 853.2 541C817.7 541 782.3 541 746.8 541C711.3 541 675.7 541 640 541C604.3 541 568.7 541 533.2 541C497.7 541 462.3 541 426.8 541C391.3 541 355.7 541 320 541C284.3 541 248.7 541 213.2 541C177.7 541 142.3 541 106.8 541C71.3 541 35.7 541 17.8 541L0 541Z" fill="#7b5497"></path><path d="M0 491L17.8 490.3C35.7 489.7 71.3 488.3 106.8 483.7C142.3 479 177.7 471 213.2 464.7C248.7 458.3 284.3 453.7 320 457.8C355.7 462 391.3 475 426.8 482.5C462.3 490 497.7 492 533.2 488.7C568.7 485.3 604.3 476.7 640 474C675.7 471.3 711.3 474.7 746.8 474.7C782.3 474.7 817.7 471.3 853.2 467.3C888.7 463.3 924.3 458.7 942.2 456.3L960 454L960 541L942.2 541C924.3 541 888.7 541 853.2 541C817.7 541 782.3 541 746.8 541C711.3 541 675.7 541 640 541C604.3 541 568.7 541 533.2 541C497.7 541 462.3 541 426.8 541C391.3 541 355.7 541 320 541C284.3 541 248.7 541 213.2 541C177.7 541 142.3 541 106.8 541C71.3 541 35.7 541 17.8 541L0 541Z" fill="#405480"></path><path d="M0 508L17.8 506.7C35.7 505.3 71.3 502.7 106.8 500C142.3 497.3 177.7 494.7 213.2 492.8C248.7 491 284.3 490 320 492.2C355.7 494.3 391.3 499.7 426.8 503.8C462.3 508 497.7 511 533.2 508.7C568.7 506.3 604.3 498.7 640 495.8C675.7 493 711.3 495 746.8 494.5C782.3 494 817.7 491 853.2 491.8C888.7 492.7 924.3 497.3 942.2 499.7L960 502L960 541L942.2 541C924.3 541 888.7 541 853.2 541C817.7 541 782.3 541 746.8 541C711.3 541 675.7 541 640 541C604.3 541 568.7 541 533.2 541C497.7 541 462.3 541 426.8 541C391.3 541 355.7 541 320 541C284.3 541 248.7 541 213.2 541C177.7 541 142.3 541 106.8 541C71.3 541 35.7 541 17.8 541L0 541Z" fill="#2f4858"></path></svg>