<?xml version="1.0" encoding="utf-8"?>
<!-- Generator: Adobe Illustrator 25.2.0, SVG Export Plug-In . SVG Version: 6.00 Build 0)  -->
<svg version="1.1" id="레이어_1" xmlns="http://www.w3.org/2000/svg" xmlns:xlink="http://www.w3.org/1999/xlink" x="0px"
	 y="0px" viewBox="0 0 192 166" style="enable-background:new 0 0 192 166;" xml:space="preserve">
<style type="text/css">
	.st0{fill:#EB6100;}
	.st1{fill:#FFFFFF;}
	.st2{fill:#273742;}
</style>
<g>
	<path class="st0" d="M187.1,40.14c-12.11,2.02-36.73,25.5-50.72,39.76H55.05c-14-14.26-38.61-37.75-50.72-39.76
		c-15.79-2.63,15.43,90.18,21.66,108.29l2.14,7.5c1.65,5.79,7.38,10.32,12.81,10.32h109.4c5.43,0,11.16-4.53,12.81-10.32l1.47-5.14
		C167.92,141.32,203.79,37.36,187.1,40.14z"/>
	<path class="st1" d="M63.73,142.72c0,5.78-4.68,10.46-10.46,10.46s-10.46-4.68-10.46-10.46c0-5.78,4.68-10.46,10.46-10.46
		S63.73,136.94,63.73,142.72z M109.89,156.56v-2.21c0-1.58-1.29-2.87-2.87-2.87H86.63c-1.58,0-2.87,1.29-2.87,2.87v2.21
		c0,1.58,1.29,2.87,2.87,2.87h20.38C108.6,159.44,109.89,158.14,109.89,156.56z M121.43,142.02c0,1.98,1.11,4.21,3.92,4.21h5.23
		v5.08c0,3.15,2.08,4.6,4.45,4.6c2.37,0,4.45-1.45,4.45-4.6v-5.08h5.22c2.81,0,3.92-2.23,3.92-4.21c0-1.98-1.06-4.06-3.92-4.06
		h-5.22v-5.08c0-3.14-2.08-4.6-4.45-4.6c-2.37,0-4.45,1.45-4.45,4.6v5.08h-5.23C122.49,137.96,121.43,140.04,121.43,142.02z"/>
	<g>
		<rect x="50.97" y="17.55" class="st2" width="11.46" height="11.46"/>
		<rect x="60.68" y="27.68" class="st2" width="11.46" height="11.46"/>
		<rect x="41.59" y="7.88" class="st2" width="11.46" height="11.46"/>
		<rect x="69.81" y="36.73" class="st2" width="11.46" height="11.46"/>
	</g>
	<g>
		<rect x="128.99" y="17.55" class="st2" width="11.46" height="11.46"/>
		<rect x="119.28" y="27.68" class="st2" width="11.46" height="11.46"/>
		<rect x="138.37" y="7.88" class="st2" width="11.46" height="11.46"/>
		<rect x="110.15" y="36.73" class="st2" width="11.46" height="11.46"/>
	</g>
	<rect x="89.67" y="1.25" class="st2" width="11.46" height="46.95"/>
</g>
</svg>
